<svg xmlns="http://www.w3.org/2000/svg" xmlns:xlink="http://www.w3.org/1999/xlink" width="381" height="104" viewBox="0 0 381 104">
  <defs>
    <clipPath id="clip-Web_1920_1">
      <rect width="381" height="104"/>
    </clipPath>
  </defs>
  <g id="Web_1920_1" data-name="Web 1920 – 1" clip-path="url(#clip-Web_1920_1)">
    <rect width="381" height="104" fill="#fff"/>
    <g id="Page-1" transform="translate(-11 -0.06)">
      <g id="Artboard" transform="translate(-2489 -2153)">
        <g id="Group-7" transform="translate(2490 2139)">
          <g id="leaf-2" transform="translate(169)">
            <g id="leaf" transform="translate(25.381 0.029) rotate(23.548)">
              <path id="Path" d="M35.219,0s-4.8,4.936-9.708,7.211C-8.307,22.872,1.137,50.3,1.7,50.394a23.408,23.408,0,0,1,5.36-6.237C26.6,29.784,30.575,13.24,30.575,13.24S26.189,33.148,8.8,45.535C4.959,48.269,2.359,55,1.258,61.731c0,0,2.722-1.1,3.893-1.4a21.67,21.67,0,0,1,3.025-8.382C32.479,54.845,38.525,36.63,39.564,29.8,42.019,13.668,35.219,0,35.219,0Z"/>
            </g>
          </g>
        </g>
      </g>
    </g>
    <text id="MARIE_LEFRANC" data-name="MARIE LEFRANC" transform="translate(0 102)" font-size="48" font-family="Avenir-Medium, Avenir" font-weight="500"><tspan x="0" y="0">MARIE LEFRANC</tspan></text>
  </g>
</svg>
